<?xml version="1.0" encoding="UTF-8" standalone="no"?>

<svg version="1.1" id="svg1" width="613.33331" height="613.33331" viewBox="0 0 613.33331 613.33331" xmlns="http://www.w3.org/2000/svg" xmlns:svg="http://www.w3.org/2000/svg">
  <defs id="defs1" />
  <g id="g1"><circle cx="306.666655" cy="306.666655" r="300" fill="#000000"/>
    <path style="fill:#FFFFFF;fill-opacity:1" d="M 82.108086,514.45036 C 49.834385,479.32038 25.667086,435.29931 12.687598,387.99999 6.7836146,366.48493 5.4992691,358.98736 2.8092059,330.33332 c -2.07357084,-22.08728 -2.07357084,-25.24605 0,-47.33333 C 5.4992691,254.34595 6.7836146,246.84838 12.687598,225.33333 41.478212,120.41574 120.41574,41.478212 225.33333,12.687598 c 21.51505,-5.9039834 29.01262,-7.1883289 57.66666,-9.8783921 22.08728,-2.07357084 25.24605,-2.07357084 47.33333,0 28.65404,2.6900632 36.15161,3.9744087 57.66667,9.8783921 104.91758,28.790614 183.85511,107.728142 212.64573,212.645732 5.90398,21.51505 7.18832,29.01262 9.87839,57.66666 2.07357,22.08728 2.07357,25.24605 0,47.33333 -2.69007,28.65404 -3.97441,36.15161 -9.87839,57.66667 -11.42346,41.62888 -31.74461,81.13063 -58.59112,113.89372 l -9.27871,11.32361 -2.93265,-12.942 c -6.79714,-29.9963 -18.26759,-53.33399 -34.99165,-71.19376 -7.10389,-7.5863 -17.29312,-13.2193 -62.4851,-34.54412 l -6.96682,-3.28745 7.63349,-4.52534 c 4.19842,-2.48894 10.11195,-6.53384 13.14117,-8.98867 5.16326,-4.18422 5.95534,-4.41081 12.66666,-3.62351 8.90455,1.04459 17.85036,-1.22654 20.44818,-5.19131 2.66427,-4.06619 3.96296,-16.58802 2.33276,-22.49212 -1.33569,-4.8375 -1.32564,-4.85453 3.38648,-5.73853 5.3558,-1.00475 12.32491,-7.22488 12.32491,-11.00032 0,-1.388 -3.24241,-5.31422 -7.23594,-8.76199 -9.13952,-7.89048 -16.52075,-21.02676 -23.51802,-41.8547 -2.88532,-8.5884 -5.24597,-15.64338 -5.24589,-15.67772 8e-5,-0.0344 8.25008,-0.0916 18.33333,-0.1273 22.09428,-0.0782 31.88406,-2.762 43.96409,-12.05263 8.71098,-6.69953 20.09257,-19.30993 24.93707,-27.62939 4.9719,-8.53826 9.33452,-24.80119 8.23099,-30.68348 -1.26501,-6.74312 -4.38189,-8.40174 -22.93713,-12.20578 -19.25238,-3.94697 -35.31341,-5.62798 -65.31893,-6.83654 l -22.79043,-0.91794 5.87053,-6.12683 c 11.71768,-12.22925 14.46981,-25.11715 9.68646,-45.36052 -2.18899,-9.26394 -2.71837,-14.32003 -2.02423,-19.33334 0.51698,-3.733783 1.06769,-7.699248 1.22382,-8.812141 0.15612,-1.112893 0.74418,-2.768262 1.3068,-3.678598 1.90831,-3.087719 -0.48747,-6.844749 -4.891,-7.669992 C 444.61285,79.653975 421.94304,98.490657 413.55252,118 c -3.41378,7.9376 -10.15704,18 -12.0626,18 -1.07064,0 -2.90567,-0.86793 -4.07784,-1.92873 -4.29584,-3.88768 -21.08771,-9.82541 -33.83094,-11.96288 -7.19704,-1.20719 -15.25942,-3.36002 -17.91641,-4.78408 -3.23312,-1.73285 -7.2869,-2.55463 -12.25672,-2.48467 -15.68273,0.22076 -23.89087,-4.83312 -26.80836,-16.50631 -1.47838,-5.915145 -1.86614,-6.333333 -5.87247,-6.333333 -4.79829,0 -16.07799,7.854064 -17.43923,12.142963 -0.65334,2.05848 -1.28812,2.26065 -3.45569,1.1006 -6.16273,-3.29819 -15.87798,3.19196 -17.78667,11.88217 -0.77071,3.50899 -1.47742,3.93038 -7.84734,4.67904 -9.36162,1.10027 -20.41868,5.0245 -30.03137,10.65835 l -7.89876,4.62933 -3.25834,-3.54623 c -1.7921,-1.95042 -5.84844,-8.34622 -9.0141,-14.21289 -11.52546,-21.359224 -25.59661,-35.743616 -36.57581,-37.390049 -10.24646,-1.536552 -14.37745,3.323428 -11.53287,13.568056 1.97603,7.116583 1.80648,13.692733 -0.69745,27.051423 -3.72233,19.85892 -0.77865,31.24279 11.61411,44.91447 l 7.12121,7.8561 -10.62911,0.29471 c -38.57983,1.06972 -88.729028,6.81063 -96.684138,11.06808 -6.371379,3.40986 -4.811443,18.58742 3.662602,35.63566 9.228413,18.5659 23.654835,32.17435 41.585396,39.22753 6.3591,2.50143 10.16035,2.94924 25.48824,3.00269 l 18.01452,0.0628 -4.37508,12.68759 c -6.29589,18.25787 -9.23231,24.76115 -14.47611,32.06014 -4.1226,5.73835 -15.10562,14.62744 -18.07312,14.62744 -2.32172,0 -0.95694,5.30439 2.38741,9.27892 4.10138,4.87421 9.73969,8.05441 14.28,8.05441 3.15654,0 3.20447,0.15676 1.90739,6.23839 -1.67075,7.83364 0.43747,18.19241 4.8215,23.6905 3.1978,4.01043 5.72138,4.48389 25.0434,4.69842 2.14936,0.0239 6.34773,2.30629 10.66667,5.79888 3.91722,3.16774 10.83615,7.78641 15.37541,10.26371 l 8.25318,4.50418 -12.73611,5.02949 c -7.00486,2.76622 -16.6981,7.20728 -21.54053,9.86901 -4.84243,2.66174 -11.74899,6.00016 -15.3479,7.41872 -12.33567,4.86227 -22.74827,15.73768 -33.87713,35.38288 -5.93325,10.47367 -17.0086,38.98314 -21.666471,55.77248 -1.627591,5.86667 -3.397851,11.46934 -3.933912,12.45038 -0.69088,1.26438 -3.591623,-1.06486 -9.962891,-8 z M 231.0383,110.77883 c 1.76656,-0.67164 3.97694,-3.0681 4.91197,-5.32547 1.45356,-3.5092 1.37687,-4.59755 -0.52896,-7.506212 -7.13373,-10.887446 -20.80317,-4.214274 -16.7187,8.161772 1.78837,5.41884 6.08634,7.04591 12.33569,4.66991 z m 164.64019,-0.19989 c 4.76434,-1.66085 6.26255,-5.77104 4.22948,-11.603115 -1.52628,-4.378278 -5.7246,-5.974105 -12.34063,-4.690801 -4.86975,0.944579 -6.85931,5.780266 -4.86474,11.823896 1.85324,5.61537 5.79507,6.97327 12.97589,4.47002 z" id="path1" />
  </g>
</svg>
